<svg width="1920" height="600" xmlns="http://www.w3.org/2000/svg">
  <defs>
    <linearGradient id="grad1" x1="0%" y1="0%" x2="100%" y2="100%">
      <stop offset="0%" style="stop-color:#4c8a89;stop-opacity:1" />
      <stop offset="50%" style="stop-color:#5ba3a2;stop-opacity:1" />
      <stop offset="100%" style="stop-color:#4c8a89;stop-opacity:1" />
    </linearGradient>
    <pattern id="grid" width="40" height="40" patternUnits="userSpaceOnUse">
      <path d="M 40 0 L 0 0 0 40" fill="none" stroke="rgba(255,255,255,0.05)" stroke-width="1"/>
    </pattern>
  </defs>
  
  <!-- Background -->
  <rect width="1920" height="600" fill="url(#grad1)"/>
  <rect width="1920" height="600" fill="url(#grid)"/>
  
  <!-- City Skyline Silhouette -->
  <g opacity="0.15" fill="#ffffff">
    <rect x="100" y="350" width="80" height="250"/>
    <rect x="200" y="300" width="100" height="300"/>
    <rect x="320" y="380" width="60" height="220"/>
    <rect x="400" y="250" width="120" height="350"/>
    <rect x="540" y="320" width="90" height="280"/>
    <rect x="650" y="280" width="110" height="320"/>
    <rect x="780" y="340" width="70" height="260"/>
    <rect x="870" y="290" width="100" height="310"/>
    <rect x="990" y="360" width="80" height="240"/>
    <rect x="1090" y="310" width="95" height="290"/>
    <rect x="1205" y="270" width="115" height="330"/>
    <rect x="1340" y="330" width="85" height="270"/>
    <rect x="1445" y="300" width="100" height="300"/>
    <rect x="1565" y="350" width="75" height="250"/>
    <rect x="1660" y="320" width="90" height="280"/>
    <rect x="1770" y="280" width="100" height="320"/>
  </g>
  
  <!-- Emergency Icon -->
  <g transform="translate(860, 180)">
    <circle cx="100" cy="100" r="90" fill="rgba(255,255,255,0.1)" stroke="rgba(255,255,255,0.3)" stroke-width="3"/>
    <path d="M 100 40 L 120 90 L 170 90 L 130 120 L 150 170 L 100 140 L 50 170 L 70 120 L 30 90 L 80 90 Z" 
          fill="rgba(255,255,255,0.25)" stroke="rgba(255,255,255,0.4)" stroke-width="2"/>
  </g>
  
  <!-- Text -->
  <text x="960" y="450" font-family="Arial, sans-serif" font-size="48" font-weight="bold" 
        text-anchor="middle" fill="#ffffff" opacity="0.9">
    QUEZON CITY EMERGENCY
  </text>
  <text x="960" y="500" font-family="Arial, sans-serif" font-size="36" 
        text-anchor="middle" fill="#ffffff" opacity="0.8">
    Communication Portal
  </text>
</svg>

